<mxfile host="app.diagrams.net" modified="2024-09-24T06:46:50.998Z" agent="Mozilla/5.0 (Macintosh; Intel Mac OS X 10_15_7) AppleWebKit/537.36 (KHTML, like Gecko) Chrome/129.0.0.0 Safari/537.36" version="24.0.7" etag="I7gCF-npJ2TRYzFQfZt4" type="github">
  <diagram name="Page-1" id="1lgh5_XqCpS572gQmHkC">
    <mxGraphModel>
      <root>
        <mxCell id="0" />
        <mxCell id="1" parent="0" />
      </root>
    </mxGraphModel>
  </diagram>
</mxfile>
